{"title":"Oldboy.2013.BDRiP.AC3-5.1.XviD-AXED","uid":9604202,"size":1479859730,"categoryP":"video","categoryS":"movies","magnet":"?xt=urn:btih:a8f965d28940d5f25624e2928f5a563f0cd30f81&amp;dn=Oldboy.2013.BDRiP.AC3-5.1.XviD-AXED&amp;tr=udp%3A%2F%2Ftracker.openbittorrent.com%3A80&amp;tr=udp%3A%2F%2Fopen.demonii.com%3A1337&amp;tr=udp%3A%2F%2Ftracker.coppersurfer.tk%3A6969&amp;tr=udp%3A%2F%2Fexodus.desync.com%3A6969","seeders":1,"leechers":0,"uploader":"reloader786","files":4,"time":1392186297,"description":"Get newest releases at &lt;a href=&quot; http://www.extratorrent.me&quot; rel=&quot;nofollow&quot; target=&quot;_NEW&quot;&gt; http://www.extratorrent.me&lt;/a&gt;\n\n\n-------------------------------------------------------------------------------\n\nObsessed with vengeance, a man sets out to find out why he was kidnapped and locked into solitary confinement for 20 years without reason.\n\nDirector: Spike Lee\nWriters: Garon Tsuchiya (manga), Nobuaki Minegishi (manga)\nStars: Josh Brolin, Elizabeth Olsen, Samuel L. Jackson\nGenres: Action | Drama | Mystery | Thriller\nCountry: USA\nLanguage: English\n\n\nMedia Info:\nGeneral\nComplete name : Oldboy.2013.BDRiP.AC3-5.1.XviD-AXED.avi\nFormat : AVI\nFormat/Info : Audio Video Interleave\nFile size : 1.37 GiB\nDuration : 1h 43mn\nOverall bit rate : 1 888 Kbps\n\nVideo\nID : 0\nFormat : MPEG-4 Visual\nFormat profile : Advanced Simple@L5\nFormat settings, BVOP : 2\nFormat settings, QPel : No\nFormat settings, GMC : No warppoints\nFormat settings, Matrix : Default (H.263)\nMuxing mode : Packed bitstream\nCodec ID : XVID\nCodec ID/Hint : XviD\nDuration : 1h 43mn\nBit rate : 1 432 Kbps\nWidth : 720 pixels\nHeight : 304 pixels\nDisplay aspect ratio : 2.35:1\nFrame rate : 23.976 fps\nColor space : YUV\nChroma subsampling : 4:2:0\nBit depth : 8 bits\nScan type : Progressive\nCompression mode : Lossy\nBits/(Pixel*Frame) : 0.273\nStream size : 1.04 GiB (76%)\nWriting library : XviD 64\n\nAudio\nID : 1\nFormat : AC-3\nFormat/Info : Audio Coding 3\nMode extension : CM (complete main)\nFormat settings, Endianness : Big\nCodec ID : 2000\nDuration : 1h 43mn\nBit rate mode : Constant\nBit rate : 448 Kbps\nChannel(s) : 6 channels\nChannel positions : Front: L C R, Side: L R, LFE\nSampling rate : 48.0 KHz\nBit depth : 16 bits\nCompression mode : Lossy\nStream size : 333 MiB (24%)\nAlignment : Aligned on interleaves\nInterleave, duration : 64 ms (1.53 video frames)\nInterleave, preload duration : 192 ms\nTitle : ob13\n\n\nSOURCE:\nRetail RA Blu-Ray DISC\n &lt;a href=&quot;\nhttp://i.imgur.com/WN2DFHq.png&quot; rel=&quot;nofollow&quot; target=&quot;_NEW&quot;&gt;\nhttp://i.imgur.com/WN2DFHq.png&lt;/a&gt; &lt;a href=&quot;\nhttp://i.imgur.com/GrOn8FY.png&quot; rel=&quot;nofollow&quot; target=&quot;_NEW&quot;&gt;\nhttp://i.imgur.com/GrOn8FY.png&lt;/a&gt; &lt;a href=&quot;\nhttp://i.imgur.com/qTF5nGc.png&quot; rel=&quot;nofollow&quot; target=&quot;_NEW&quot;&gt;\nhttp://i.imgur.com/qTF5nGc.png&lt;/a&gt; &lt;a href=&quot;\nhttp://i.imgur.com/ieRg5iS.png&quot; rel=&quot;nofollow&quot; target=&quot;_NEW&quot;&gt;\nhttp://i.imgur.com/ieRg5iS.png&lt;/a&gt; &lt;a href=&quot;\nhttp://i.imgur.com/jgmQFIA.png&quot; rel=&quot;nofollow&quot; target=&quot;_NEW&quot;&gt;\nhttp://i.imgur.com/jgmQFIA.png&lt;/a&gt;","torrent":{"xt":"urn:btih:a8f965d28940d5f25624e2928f5a563f0cd30f81","amp;dn":"Oldboy.2013.BDRiP.AC3-5.1.XviD-AXED","amp;tr":["udp%3A%2F%2Ftracker.openbittorrent.com%3A80","udp%3A%2F%2Fopen.demonii.com%3A1337","udp%3A%2F%2Ftracker.coppersurfer.tk%3A6969","udp%3A%2F%2Fexodus.desync.com%3A6969"],"infoHash":"a8f965d28940d5f25624e2928f5a563f0cd30f81","infoHashBuffer":{"type":"Buffer","data":[168,249,101,210,137,64,213,242,86,36,226,146,143,90,86,63,12,211,15,129]},"announce":[],"urlList":[]}}